<?xml version="1.0" encoding="utf-8"?>
<!-- Generator: Adobe Illustrator 19.2.1, SVG Export Plug-In . SVG Version: 6.00 Build 0)  -->
<svg version="1.1" id="Layer_1" xmlns="http://www.w3.org/2000/svg" xmlns:xlink="http://www.w3.org/1999/xlink" x="0px" y="0px"
	 viewBox="0 0 1000 439.8" style="enable-background:new 0 0 1000 439.8;" xml:space="preserve">
<g>
	<g>
		<path d="M72,374.8H52v35.9H25.6V291h48.9c28.6,0,45.8,16.9,45.8,41.4v0.3C120.4,360.4,98.8,374.8,72,374.8z M93.7,332.9
			c0-11.8-8.2-18.1-21.4-18.1H52v36.6h20.9c13.2,0,20.9-7.9,20.9-18.1V332.9z"/>
		<path d="M139.9,410.7V291h26.3v95.7h59.7v23.9H139.9z"/>
		<path d="M334.7,410.7l-10.9-26.8h-50.6l-10.9,26.8h-26.8l51.3-120.5H311l51.3,120.5H334.7z M298.5,321.8l-15.9,38.8h31.8
			L298.5,321.8z"/>
		<path d="M419.5,315.3v95.4h-26.3v-95.4h-36.4V291h99.2v24.3H419.5z"/>
		<path d="M502.4,315v25.5h57.1v23.9h-57.1v46.3h-26.3V291h91.1V315H502.4z"/>
		<path d="M646.4,412.8c-36.9,0-63.4-27.5-63.4-61.5v-0.3c0-34,26.8-61.9,63.8-61.9c36.9,0,63.4,27.5,63.4,61.5v0.3
			C710.2,384.9,683.3,412.8,646.4,412.8z M682.6,350.9c0-20.5-15-37.6-36.2-37.6c-21.2,0-35.9,16.8-35.9,37.3v0.3
			c0,20.5,15,37.6,36.2,37.6c21.2,0,35.9-16.8,35.9-37.3V350.9z"/>
		<path d="M806.2,410.7l-25.6-38.3h-20.7v38.3h-26.3V291h54.7c28.2,0,45.1,14.9,45.1,39.5v0.3c0,19.3-10.4,31.5-25.6,37.1l29.2,42.7
			H806.2z M806.8,331.9c0-11.3-7.9-17.1-20.7-17.1h-26.2v34.4h26.7c12.8,0,20.2-6.8,20.2-16.9V331.9z"/>
		<path d="M950.7,410.7v-78.1L917,383.7h-0.7L883,333.1v77.6h-25.8V291h28.4l31.5,50.6l31.5-50.6h28.4v119.7H950.7z"/>
	</g>
	<path d="M946,242.5L946,242.5l-29.7-29.7H671.7l-29,29h-21.3l76.6-76.6c3.5-3.5,3.5-9.3,0-12.9L568.4,22.6c-1.7-1.7-4-2.6-6.4-2.6
		c-2.4,0-4.7,0.9-6.4,2.6L344.2,234c-1.7,1.7-2.6,4-2.6,6.4c0,0.4,0,0.9,0.1,1.3h-15.1c0-0.4-0.1-0.8-0.1-1.3c0-6.5,2.5-12.5,7-17.1
		l10.7-10.7H87.1l-29,29l0,0l-32.5,31.8h31.8H945h31.8L946,242.5z"/>
</g>
</svg>
