<?xml version="1.0" encoding="utf-8"?>
<!-- Generator: Adobe Illustrator 19.2.1, SVG Export Plug-In . SVG Version: 6.00 Build 0)  -->
<svg version="1.1" id="Layer_1" xmlns="http://www.w3.org/2000/svg" xmlns:xlink="http://www.w3.org/1999/xlink" x="0px" y="0px"
	 viewBox="0 0 614.1 326.1" style="enable-background:new 0 0 614.1 326.1;" xml:space="preserve">
<style type="text/css">
	.st0{font-family:'Oswald-Bold';}
	.st1{font-size:139.8584px;}
</style>
<g>
	<text transform="matrix(1 0 0 1 17.7183 309.9883)" class="st0 st1">PLATFORM</text>
	<path d="M573.6,154.7L573.6,154.7L555.8,137H410l-17.3,17.3H380l45.7-45.7c2.1-2.1,2.1-5.6,0-7.7l-77.3-77.3c-1-1-2.4-1.6-3.8-1.6
		c-1.5,0-2.8,0.6-3.8,1.6L214.6,149.7c-1,1-1.6,2.4-1.6,3.8c0,0.3,0,0.5,0.1,0.8h-9c0-0.3,0-0.5,0-0.8c0-3.9,1.5-7.5,4.2-10.2
		l6.4-6.4H61.2l-17.3,17.3l0,0l-19.4,19h19H573h19L573.6,154.7z"/>
</g>
</svg>
